PathFileType	4	(X/Y/Z)	/Users/itak/Documents/Research/Walk-IL/dataset/trc/00494_00167.trc
DataRate	CameraRate	NumFrames	NumMarkers	Units	OrigDataRate	OrigDataStartFrame	OrigNumFrames
100.000000	100.000000	4	53	mm	100.000000	296	593
Frame#	Time	RPSI			LPSI			L3			STRN			T10			C7			CLAV			RBAK			LBAK			LSHO			LUPA			LAEL			LAOL			LWTS			LWPS			LFRA			LIFD			LHPS			LHTS			RSHO			RUPA			RAEL			RAOL			RWTS			RWPS			RFRA			RIFD			RHTS			RHPS			RBHD			LFHD			RFHD			LBHD			LHIP			RHIP			RASI			LASI			LKNE			LTHI			LANK			LTIP			LTOE			LMT1			LMT5			LHEE			RKNE			RTHI			RANK			RTIP			RTOE			RMT1			RMT5			RHEE			
		X1	Y1	Z1	X2	Y2	Z2	X3	Y3	Z3	X4	Y4	Z4	X5	Y5	Z5	X6	Y6	Z6	X7	Y7	Z7	X8	Y8	Z8	X9	Y9	Z9	X10	Y10	Z10	X11	Y11	Z11	X12	Y12	Z12	X13	Y13	Z13	X14	Y14	Z14	X15	Y15	Z15	X16	Y16	Z16	X17	Y17	Z17	X18	Y18	Z18	X19	Y19	Z19	X20	Y20	Z20	X21	Y21	Z21	X22	Y22	Z22	X23	Y23	Z23	X24	Y24	Z24	X25	Y25	Z25	X26	Y26	Z26	X27	Y27	Z27	X28	Y28	Z28	X29	Y29	Z29	X30	Y30	Z30	X31	Y31	Z31	X32	Y32	Z32	X33	Y33	Z33	X34	Y34	Z34	X35	Y35	Z35	X36	Y36	Z36	X37	Y37	Z37	X38	Y38	Z38	X39	Y39	Z39	X40	Y40	Z40	X41	Y41	Z41	X42	Y42	Z42	X43	Y43	Z43	X44	Y44	Z44	X45	Y45	Z45	X46	Y46	Z46	X47	Y47	Z47	X48	Y48	Z48	X49	Y49	Z49	X50	Y50	Z50	X51	Y51	Z51	X52	Y52	Z52	X53	Y53	Z53	

297	2.96	-847.8154907226562	940.9893798828125	88.25938415527344	-807.78076171875	930.0584716796875	-49.20683670043945	-824.267333984375	1045.67041015625	42.43269729614258	-549.07421875	1241.28173828125	81.44227600097656	-834.5557250976562	1170.492553710938	40.39825057983398	-767.0868530273438	1439.095092773438	63.59187316894531	-584.217529296875	1353.922607421875	71.27344512939453	-841.7207641601562	1321.189697265625	149.8389892578125	-789.21923828125	1391.328857421875	-38.79520416259766	-677.8711547851562	1411.083618164062	-105.4580230712891	-678.4039916992188	1294.724975585938	-204.7048034667969	-660.2481689453125	1081.5615234375	-244.66357421875	-745.5830688476562	1068.068359375	-185.9710540771484	-605.96923828125	865.7540283203125	-207.9274291992188	-644.1441650390625	862.6414794921875	-271.3143005371094	-645.7907104492188	993.2786865234375	-258.7171936035156	-628.5504150390625	704.0586547851562	-227.1663818359375	-648.4972534179688	784.1506958007812	-276.7620239257812	-603.75244140625	777.3628540039062	-220.9112243652344	-718.1556396484375	1409.884399414062	229.0667266845703	-746.1859130859375	1354.223510742188	304.3512573242188	-760.39990234375	1074.792846679688	382.9179077148438	-807.7793579101562	1056.323120117188	338.3200073242188	-666.2476196289062	860.225830078125	364.1474609375	-736.0835571289062	855.4139404296875	417.8937377929688	-760.0372314453125	1017.145080566406	397.6561889648438	-676.580322265625	705.048828125	382.5565795898438	-657.1302490234375	763.0257568359375	384.0641174316406	-724.9263305664062	766.490234375	422.0736999511719	-653.1487426757812	1642.726928710938	149.7047576904297	-558.1411743164062	1636.864868164062	-33.78723907470703	-527.547607421875	1648.660278320312	92.57310485839844	-710.393798828125	1632.534423828125	-18.34977149963379	-627.6055908203125	839.6856689453125	-118.6713943481445	-762.1404418945312	849.6787109375	257.277587890625	-649.2421264648438	899.88134765625	222.4954528808594	-571.4948120117188	891.1810302734375	-17.23368644714355	-490.0527648925781	451.5905456542969	-53.99743270874023	-492.72314453125	605.1817626953125	-75.85142517089844	-823.2141723632812	182.1939239501953	-102.2110137939453	-598.102783203125	335.4912414550781	-86.25846099853516	-642.4312744140625	51.79644775390625	-29.39812660217285	-705.9945678710938	86.73715209960938	-2.23409628868103	-700.4229125976562	95.79864501953125	-111.9736633300781	-856.650634765625	208.9313659667969	-37.57039260864258	-660.0481567382812	465.5131530761719	245.6155548095703	-700.9307250976562	722.0614624023438	278.3851318359375	-734.2731323242188	41.77671813964844	222.0177917480469	-661.250244140625	318.3677368164062	250.0343322753906	-509.1033630371094	45.20717239379883	226.4896240234375	-564.923583984375	52.81811904907227	177.0798034667969	-611.047119140625	41.84933471679688	278.7460632324219	-786.29248046875	37.01919174194336	162.0196685791016	
298	2.97	-840.3428955078125	942.1435546875	90.50996398925781	-800.3582763671875	931.1596069335938	-46.86577987670898	-817.1864013671875	1046.817138671875	45.47873306274414	-541.57666015625	1242.619750976562	82.24645233154297	-827.2998046875	1171.660522460938	44.06679534912109	-759.492919921875	1440.299194335938	66.46217346191406	-576.7667236328125	1355.166381835938	71.87955474853516	-833.1653442382812	1322.763549804688	153.8656921386719	-782.9700927734375	1392.281372070312	-35.35121536254883	-672.6626586914062	1412.02978515625	-103.6711730957031	-675.5013427734375	1295.963500976562	-203.0915069580078	-659.5233154296875	1082.559936523438	-243.3468322753906	-743.6173706054688	1069.402099609375	-182.8447875976562	-604.148193359375	867.14599609375	-207.0497436523438	-643.830322265625	863.4515380859375	-269.4288635253906	-645.33642578125	994.19140625	-257.4086303710938	-625.764892578125	705.3035888671875	-224.9976501464844	-647.7887573242188	784.9734497070312	-274.4046020507812	-601.4386596679688	778.84423828125	-219.7656402587891	-708.4757080078125	1411.661743164062	231.2215728759766	-735.2136840820312	1356.393676757812	307.1763000488281	-747.0890502929688	1077.420532226562	387.5786743164062	-795.2047729492188	1058.478637695312	343.9748229980469	-652.5858154296875	863.0863647460938	368.585205078125	-721.3921508789062	858.3816528320312	423.5506591796875	-746.2874145507812	1019.816528320312	402.6820373535156	-661.7207641601562	708.0248413085938	388.5356750488281	-642.6036987304688	766.125244140625	389.2110290527344	-709.6849975585938	769.5884399414062	428.3707580566406	-643.4700927734375	1643.768432617188	150.5375366210938	-551.3465576171875	1637.424682617188	-34.40799331665039	-518.749267578125	1649.253173828125	91.45098876953125	-703.3937377929688	1633.597045898438	-16.63968467712402	-619.3974609375	842.0252075195312	-116.2880172729492	-755.5537109375	850.4893798828125	259.3620300292969	-642.3961181640625	900.4759521484375	225.2841796875	-564.5567626953125	893.0103149414062	-14.19534492492676	-476.575439453125	455.6197509765625	-51.21307754516602	-480.8059997558594	609.88623046875	-73.27268218994141	-798.9949951171875	171.8305053710938	-90.38465118408203	-580.9552001953125	335.3419799804688	-80.76999664306641	-608.7750854492188	51.63557052612305	-22.8126277923584	-673.5697021484375	83.11295318603516	6.152213096618652	-671.7142944335938	92.79568481445312	-103.5110473632812	-832.1405639648438	196.5611724853516	-24.6681022644043	-658.3602905273438	465.3869934082031	246.4249572753906	-695.5076293945312	722.3991088867188	279.7710571289062	-734.239013671875	41.90760040283203	221.9824676513672	-660.2969360351562	318.2275085449219	250.5341491699219	-509.1336975097656	45.16283416748047	226.6574249267578	-564.8720703125	52.80428314208984	177.0906982421875	-611.0524291992188	41.81208419799805	278.7491455078125	-786.2471923828125	37.24490356445312	161.9772186279297	
299	2.98	-832.8596801757812	943.3030395507812	92.72330474853516	-792.9763793945312	932.0848999023438	-44.59136962890625	-810.0357666015625	1047.79296875	48.49302291870117	-534.1174926757812	1243.797119140625	83.041015625	-820.009033203125	1172.6640625	47.6392936706543	-751.9527587890625	1441.357421875	69.1593017578125	-569.3712158203125	1356.254516601562	72.44645690917969	-824.6668090820312	1324.163696289062	157.6917419433594	-776.7037963867188	1393.052612304688	-32.06075286865234	-667.4337768554688	1412.7861328125	-101.9536590576172	-672.5670166015625	1297.032470703125	-201.5132293701172	-658.8207397460938	1083.40966796875	-242.0556182861328	-741.636474609375	1070.543090820312	-179.7633514404297	-602.1055908203125	868.4656372070312	-206.1802978515625	-643.3422241210938	864.1066284179688	-267.4791564941406	-644.8263549804688	994.9610595703125	-256.1105346679688	-622.6199951171875	706.4495849609375	-222.6709136962891	-646.8425903320312	785.6119384765625	-271.9073486328125	-598.830322265625	780.2571411132812	-218.5626068115234	-698.9718627929688	1413.336547851562	233.2113800048828	-724.4661865234375	1358.471557617188	309.8009643554688	-733.8657836914062	1079.965454101562	392.0777282714844	-782.6323852539062	1060.51953125	349.439208984375	-638.7389526367188	865.9562377929688	372.8970642089844	-706.5684814453125	861.2916870117188	429.0270080566406	-732.564453125	1022.415954589844	407.5370483398438	-646.6188354492188	711.0007934570312	394.2236633300781	-627.9483642578125	769.2175903320312	394.1070861816406	-694.247314453125	772.6310424804688	434.4036560058594	-633.8941040039062	1644.723999023438	151.1855163574219	-544.681640625	1637.819458007812	-35.18249130249023	-510.0823974609375	1649.709228515625	90.14981842041016	-696.4801635742188	1634.522338867188	-15.09936141967773	-611.4070434570312	844.053955078125	-114.0546722412109	-748.8763427734375	851.322998046875	261.3692016601562	-635.4390258789062	900.9475708007812	227.8321075439453	-557.5614013671875	894.588623046875	-11.45321559906006	-463.8023376464844	459.2350463867188	-48.81110000610352	-469.5137329101562	614.154052734375	-70.94701385498047	-773.7875366210938	160.7312622070312	-78.89567565917969	-563.8662109375	334.6190795898438	-75.62876892089844	-574.8685302734375	51.53548431396484	-16.5638542175293	-640.6455078125	79.50278472900391	14.14588165283203	-642.5324096679688	89.37931060791016	-95.37373352050781	-806.6076049804688	183.6087799072266	-12.22448635101318	-656.79443359375	465.2856140136719	247.1743469238281	-689.8651123046875	722.8321533203125	281.2578430175781	-734.2095336914062	42.03202819824219	221.9539947509766	-659.4290771484375	318.0994873046875	251.0137176513672	-509.1609802246094	45.11366271972656	226.7928924560547	-564.8278198242188	52.80005645751953	177.118896484375	-611.0663452148438	41.76836395263672	278.7658996582031	-786.2149047851562	37.46939086914062	161.9453430175781	
300	2.99	-825.3709716796875	944.43603515625	94.91777801513672	-785.6477661132812	932.8222045898438	-42.3709831237793	-802.8330078125	1048.596923828125	51.47348403930664	-526.6905517578125	1244.78857421875	83.81986999511719	-812.693115234375	1173.492797851562	51.1257438659668	-744.4597778320312	1442.25439453125	71.69001007080078	-562.0289306640625	1357.160888671875	72.97626495361328	-816.2274169921875	1325.37646484375	161.3239593505859	-770.4157104492188	1393.630981445312	-28.92388153076172	-662.16943359375	1413.326171875	-100.3079605102539	-669.5635986328125	1297.88427734375	-199.9559631347656	-658.0863037109375	1084.074462890625	-240.7677001953125	-739.607421875	1071.464111328125	-176.7352142333984	-599.8502197265625	869.6519165039062	-205.2876129150391	-642.6382446289062	864.580078125	-265.4642028808594	-644.2122802734375	995.5487060546875	-254.8024444580078	-619.1821899414062	707.4448852539062	-220.2135925292969	-645.6290283203125	786.0392456054688	-269.2983093261719	-595.9810791015625	781.5394897460938	-217.2859802246094	-689.6301879882812	1414.880737304688	235.04638671875	-713.946044921875	1360.423217773438	312.23486328125	-720.7572021484375	1082.399658203125	396.42236328125	-770.0794067382812	1062.418579101562	354.7085876464844	-624.7169189453125	868.8236694335938	377.0748291015625	-691.6282348632812	864.1227416992188	434.3153381347656	-718.8812255859375	1024.919677734375	412.2164916992188	-631.273681640625	713.9622802734375	399.6118469238281	-613.1766357421875	772.2850952148438	398.7441101074219	-678.6233520507812	775.5950927734375	440.1576538085938	-624.4268798828125	1645.578247070312	151.6617736816406	-538.154052734375	1638.043212890625	-36.09880065917969	-501.5580749511719	1650.034545898438	88.68241119384766	-689.6575317382812	1635.279418945312	-13.71487903594971	-603.6583862304688	845.725341796875	-111.9709014892578	-742.0897827148438	852.1591796875	263.3069458007812	-628.3560791015625	901.2940063476562	230.1363220214844	-550.5061645507812	895.9091186523438	-9.022663116455078	-451.7031860351562	462.3856811523438	-46.72566223144531	-458.8962707519531	617.8838500976562	-68.86849212646484	-747.5506591796875	149.1428070068359	-67.90602111816406	-546.7525024414062	333.347900390625	-70.818359375	-540.7877807617188	51.56047058105469	-10.69503784179688	-607.321533203125	76.01321411132812	21.68545341491699	-612.845703125	85.70685577392578	-87.64490509033203	-780.0682373046875	170.3000793457031	-0.4047412276268005	-655.323486328125	465.2020874023438	247.8695220947266	-684.102783203125	723.29052734375	282.7536010742188	-734.18603515625	42.14782333374023	221.9297332763672	-658.629150390625	317.9798583984375	251.4727020263672	-509.1850891113281	45.06070709228516	226.9033966064453	-564.7925415039062	52.80442047119141	177.1637725830078	-611.0892333984375	41.7180290222168	278.7960205078125	-786.1939697265625	37.6868782043457	161.9196166992188	
